<svg data-name="Red Van" xmlns="http://www.w3.org/2000/svg" viewBox="0 0 391.52 284.07"><g data-name="Side Mirror"><ellipse cx="32.87" cy="89.81" rx="9.67" ry="10.02" fill="#58595b"/><path d="M23.25 88.78a10.11 10.11 0 0 0 8.41 4.56 10.31 10.31 0 0 0 9.9-7.94 9.63 9.63 0 0 0-8.69-5.62 9.81 9.81 0 0 0-9.62 9z" fill="#a7a9ac"/><ellipse cx="29.31" cy="90.77" rx="4.89" ry="5.96" fill="#e6e7e8"/><ellipse cx="29.31" cy="90.77" rx="2.51" ry="3.05" fill="#6d6e71"/><path d="M32.87 79.78h-.52a10 10 0 0 1 0 20h.52a10.025 10.025 0 0 0 0-20.05z" fill="#f0f0f0"/><path d="M20.01 120.89a1 1 0 0 1-1-1v-15.9a9 9 0 0 1 3.26-6.91l6.61-6.49a1 1 0 1 1 1.34 1.36l-6.68 6.55a7.11 7.11 0 0 0-2.62 5.49v15.95a.94.94 0 0 1-.91.95z" fill="#a7a9ac"/></g><path data-name="Back Wheel Well" d="M370.5 161a9.82 9.82 0 0 0-6.47-2.3l3.13 13h7.74s-.45-7.45-4.4-10.7z" fill="#020000"/><path data-name="Front Wheel Well" d="M230.34 196.49c13.16 0 23.64 13.33 25.85 31.28h1.91c0-.76-.19-26-13.06-32.06-8.43-3.94-17.16-3.86-24.59.78h9.89z" fill="#231f20"/><g data-name="Back Tire"><path d="M359.39 155.17l-15.38-.72c-9.79-.46-18.36 14.1-19.14 32.52s6.51 33.71 16.3 34.17l15.38.71c9.79.46 18.36-14.1 19.14-32.51s-6.51-33.72-16.3-34.17z" fill="#353132"/><ellipse cx="412.21" cy="240.73" rx="23.52" ry="12.51" transform="rotate(-87.65 357.885 242.875)" fill="#fff"/><path d="M340.11 187.68c.73-17.2 8.21-31 17.15-32.61l-13.25-.62c-9.79-.46-18.36 14.1-19.14 32.52s6.51 33.71 16.3 34.17l13.25.62c-8.78-2.4-15.04-16.89-14.31-34.08z" fill="#020000"/><ellipse cx="412.21" cy="240.73" rx="15.09" ry="8.02" transform="rotate(-87.65 357.885 242.875)"/><path d="M350.91 182.04c1.41 2.76 3.43 4.52 5.75 4.63 3.23.15 6.18-3 7.8-7.69-1.33-3.29-3.42-5.43-5.85-5.55-3.27-.15-6.23 3.4-7.7 8.61z" fill="#999"/><path d="M364.63 179.41c-1.6 7.48-5.58 12.76-10 12.56a6.73 6.73 0 0 1-4.69-2.54c0 7.74 3.2 14 7.39 14.16 4.43.2 8.31-6.38 8.66-14.71a24.58 24.58 0 0 0-1.36-9.47z" fill="#484848"/><path d="M350.47 188.78c.36-8.39 4.23-15 8.66-14.81a5.27 5.27 0 0 1 3.51 1.78 5.72 5.72 0 0 0-4.18-2.55c-4.42-.21-8.3 6.42-8.65 14.8-.25 5.95 1.34 11.17 3.87 13.78-2.14-2.77-3.44-7.58-3.21-13z" fill="#ccc"/></g><g data-name="Front Tire"><path d="M176.43 237.43c-.42 10 .91 18.47 4.56 25-3.3-6.36-4.99-14.75-4.56-25zM230.34 196.49h-3.36c-14.07 2.43-25.63 19.83-26.51 40.94s11 38.93 26.45 41c15.44 0 28.72-18.33 29.66-41a57.91 57.91 0 0 0-.39-9.66c-2.21-17.99-12.69-31.28-25.85-31.28zm18 40.94c-.67 15.94-10 28.86-20.91 28.86s-19.16-12.92-18.49-28.86 10-28.86 20.9-28.86 19.15 12.92 18.49 28.86z" fill="#353132"/><path d="M229.83 208.57c-10.88 0-20.24 12.92-20.9 28.86s7.61 28.86 18.49 28.86 20.24-12.92 20.91-28.86-7.57-28.86-18.5-28.86zm11.44 28.86a23.53 23.53 0 0 1-5.24 14.35 15.9 15.9 0 0 1-1.56 1.52c-.31.26-.63.51-1 .74a9.79 9.79 0 0 1-5.65 1.92 10.19 10.19 0 0 1-1.24-.09l-.42-.1c-.27-.05-.53-.1-.79-.17s-.33-.12-.5-.18-.44-.16-.66-.26-.35-.18-.52-.27-.4-.2-.59-.32a6 6 0 0 1-.52-.36l-.52-.37-.53-.46-.25-.22-.09-.09c-3.5-3.25-5.7-9.09-5.42-15.79.43-10.22 6.43-18.51 13.42-18.51a9.06 9.06 0 0 1 5.48 1.92c.06 0 .1.08.16.11l.27.21.07.05.39.33.52.49c.18.17.35.35.52.53l.42.48c.17.22.35.44.52.67l.36.51c.13.2.26.39.38.59s.3.5.43.75c.1.17.19.35.28.52a19.83 19.83 0 0 1 1.33 3.47c.06.18.11.35.16.54s.14.57.2.87.11.48.16.73.09.53.13.81.09.59.12.89.06.49.08.74.05.72.07 1.09v.61c.05.57.05 1.16.03 1.75z" fill="#fff"/><path d="M200.47 237.43c.88-21.11 12.44-38.51 26.51-40.94h-20.89c-15.44 0-28.72 18.33-29.66 40.94-.43 10.25 1.26 18.64 4.56 25 4 7.71 10.31 12.51 18.13 14.11 5.1 1 27.8 1.81 27.8 1.81-15.47-1.99-27.33-19.8-26.45-40.92z" fill="#020000"/><path d="M234.47 253.29a15.9 15.9 0 0 0 1.56-1.52 15.9 15.9 0 0 1-1.56 1.52zM222.08 253.83l-.53-.46zM240.85 231.53zM241.1 233.23c0 .24.06.49.08.74-.02-.25-.05-.5-.08-.74zM240.49 229.93zM240.33 229.39a19.83 19.83 0 0 0-1.33-3.47 19.83 19.83 0 0 1 1.33 3.47zM225.39 255.59c-.17-.05-.33-.12-.5-.18.17.06.33.13.5.18zM241.25 235.06v.61c.03-.21.01-.4 0-.61zM223.12 254.56a6 6 0 0 1-.52-.36 6 6 0 0 0 .52.36zM226.53 235.25a10.82 10.82 0 0 1-8.38-4.36 26.78 26.78 0 0 0-1.32 7.27v1.51a11.28 11.28 0 0 0 6.59 2.19c7 0 13.18-6.7 15.58-16-.09-.17-.18-.35-.28-.52-2.48 5.91-7.08 9.91-12.19 9.91zM227.84 255.95a9.79 9.79 0 0 0 5.65-1.92 9.79 9.79 0 0 1-5.65 1.92zM226.6 255.86l-.42-.1zM224.23 255.15c-.18-.08-.35-.18-.52-.27.17.09.34.19.52.27zM237.02 222.86c.17.22.35.44.52.67-.17-.23-.35-.45-.52-.67zM236.6 222.38c-.17-.18-.34-.36-.52-.53.18.17.35.35.52.53zM237.9 224.04c.13.2.26.39.38.59-.12-.2-.25-.39-.38-.59zM235.17 221.03l.39.33z"/><path d="M234.67 220.66l.16.11c-.07.01-.07-.08-.16-.11zM235.76 221.6a9.18 9.18 0 0 0-5.55-2c-5.22 0-9.89 4.64-12.1 11.25a10.82 10.82 0 0 0 8.38 4.36c5.11 0 9.71-4 12.18-9.87-.13-.25-.28-.5-.43-.75s-.25-.39-.38-.59l-.36-.51c-.17-.23-.35-.45-.52-.67l-.42-.48c-.17-.18-.34-.36-.52-.53l-.52-.49-.39-.33-.07-.05c.28.24.51.44.7.66z" fill="#999"/><path d="M221.28 253.13l-.09-.09zM241.25 235.06c0-.37 0-.73-.07-1.09s-.05-.5-.08-.74-.07-.6-.12-.89-.08-.55-.13-.81-.1-.49-.16-.73-.13-.59-.2-.87-.1-.36-.16-.54a19.83 19.83 0 0 0-1.33-3.47c-2.4 9.26-8.6 16-15.58 16a11.28 11.28 0 0 1-6.59-2.19c.08 6 2.12 11.11 5.27 14.14-.19-.15-.38-.3-.56-.46l.53.46.52.37a6 6 0 0 0 .52.36c.19.12.39.22.59.32s.34.19.52.27.44.18.66.26.33.13.5.18.52.12.79.17l.42.1a10.19 10.19 0 0 0 1.24.09 9.79 9.79 0 0 0 5.65-1.92c.33-.23.65-.48 1-.74a15.9 15.9 0 0 0 1.56-1.52 23.53 23.53 0 0 0 5.24-14.34v-1.76c0-.24-.02-.45-.03-.65z" fill="#484848"/><path d="M222.09 253.78c-3.15-3-5.19-8.18-5.27-14.14v-1.51a26.78 26.78 0 0 1 1.32-7.27c2.21-6.61 6.88-11.25 12.1-11.25a9.18 9.18 0 0 1 5.55 2c-.23-.22-.46-.42-.7-.62l-.27-.21-.16-.11a9.06 9.06 0 0 0-5.48-1.92c-7 0-13 8.29-13.42 18.51-.28 6.7 1.92 12.54 5.42 15.79l.09.09.25.22c.24.15.38.3.57.42z" fill="#ccc"/></g><g data-name="Van Interior" fill="#414042"><path d="M369.76 63.32a3.05 3.05 0 0 0-1.65-1.83c-.72-.22-1.15-.31-1.15-.31l2.8 25.41a4.64 4.64 0 0 1-4.52 5.16l-6 .12s-.08.32-.16.81l.16 1a3.06 3.06 0 0 0 3.31 2.59l9.26-.85a3.06 3.06 0 0 0 2.78-3.3c-.43-5.92-1.83-19.42-4.83-28.8zM334.09 92.69l.37 2.46a4 4 0 0 0 4.3 3.37l12.83-1.18a4 4 0 0 0 3.56-4.65zM328.38 92.69h-24.62l.78 5.2a4 4 0 0 0 4.3 3.37l16.25-1.48a4 4 0 0 0 3.59-4.39c-.09-.81-.19-1.73-.3-2.7zM296.76 92.69h-14.59a6.56 6.56 0 0 1-6.31-4.76l-9.19-32.15-5.52-.31a4 4 0 0 0-4.12 4.77l8.52 41.48a4 4 0 0 0 4.26 3.16l24.07-2.21a4 4 0 0 0 3.58-4.48c-.2-1.55-.45-3.41-.7-5.5zM246.4 62.64a7.67 7.67 0 0 0-7.6-6.12v31a5.51 5.51 0 0 1-5.12 5.49l-9.05.62c-3.32-4.41-9.28-8-19.94-8h-8V56l-9.87.52-1.57 29c-7.87-.16-13.9-.43-17.82-.64l5.33-27.04a7.55 7.55 0 0 0-2.75 3.7l-14.5 42.42a7.59 7.59 0 0 0 7.75 10l84.15-6.35a7.59 7.59 0 0 0 6.86-9.12zM120.16 56.52h-7.4l-9.82 28.05h-7.18a12.5 12.5 0 0 0-10.57 5.83l-5 7.88s-11.74.79-14.1.93a19 19 0 0 0-1.72 9.64 7 7 0 0 0 5.34 4.06c20.44 3.13 54.7 1.69 67.3 1a7.08 7.08 0 0 0 6.35-4.89l7.6-23.35h-40.2zM56.5 56.52a4.35 4.35 0 0 0-3.78 2.19L29.25 99.78a4.32 4.32 0 0 0 1.88 6.08c7.2 3.29 18.53 3.07 23.62 2.77a4.31 4.31 0 0 0 3.7-2.56l3.13-7H39.76z"/></g><path data-name="Van Base White" d="M48.81 231.56c4.38-20.78 20.54-57.78 79.05-82.27 77.23-32.31 126.77-33.3 253.69-46-2.38-33-9.37-46.81-9.37-46.81-70.26-37.13-242.51-31.24-279.22-26.25S50.35 52.44 50.35 52.44l2.7-.07c-5.92 6.29-28.54 50.41-28.54 50.41l-3.17.46c-4.51.64-10.72 34.86-10.35 74.35a351.15 351.15 0 0 1 2.35-44.39c6.19 15.4 11.17 34.37 15.33 52.69 5.14 22.66 11.09 57.89 11.09 58.02q3.69 1.75 7.51 3.26a61.61 61.61 0 0 1 1.54-15.61zM357.97 60.87l9 .31a3.08 3.08 0 0 1 2.8 2.14c3 9.37 4.44 22.87 5 28.84a3.07 3.07 0 0 1-2.78 3.31l-9.26.85a3.06 3.06 0 0 1-3.31-2.59l-4.48-29.32a3.07 3.07 0 0 1 3.03-3.54zm-24-1.11l12.37.58a4 4 0 0 1 3.73 3.29l5.09 29.06a4 4 0 0 1-3.56 4.65l-12.84 1.18a4 4 0 0 1-4.3-3.37l-4.62-30.82a4 4 0 0 1 4.12-4.55zm-30.58-1.91l17.31 1a3.94 3.94 0 0 1 3.68 3.26c1.38 7.67 3.38 25.31 4.3 33.27a4 4 0 0 1-3.59 4.39l-16.27 1.49a4 4 0 0 1-4.3-3.37l-5.3-35.49a4 4 0 0 1 4.16-4.55zm-42.23-2.42l26.48 1.51a4 4 0 0 1 3.62 3c2.16 8.56 5 29.38 6.21 38.24a4 4 0 0 1-3.58 4.48l-24.07 2.21a4 4 0 0 1-4.26-3.16l-8.52-41.48a4 4 0 0 1 4.11-4.8zm-84.16 1l61.81.11c3.65-.08 7 1.63 7.72 5.21l7.7 36.78a7.59 7.59 0 0 1-6.86 9.12L163.22 114a7.59 7.59 0 0 1-7.75-10l14.5-42.42a7.58 7.58 0 0 1 7.02-5.17zm-86.74.11h60.5a7.09 7.09 0 0 1 6.74 9.28l-14.07 43.23a7.09 7.09 0 0 1-6.35 4.89c-12.62.68-46.87 2.11-67.3-1a7.09 7.09 0 0 1-5.34-10l19.39-42.3a7.08 7.08 0 0 1 6.42-4.12zM29.25 99.78l23.51-41.07a4.35 4.35 0 0 1 3.78-2.19h17.49a4.35 4.35 0 0 1 4 6.14l-19.51 43.43a4.31 4.31 0 0 1-3.7 2.56c-5.09.3-16.42.52-23.62-2.77a4.32 4.32 0 0 1-1.95-6.1z" fill="#f0f0f0"/><g data-name="Van Base Red" fill="#d81233"><path d="M381.64 103.33h-.09c-126.92 12.66-176.46 13.65-253.69 46-58.51 24.48-74.67 61.48-79 82.27a61.61 61.61 0 0 0-1.55 15.6c1.07.42 2.15.82 3.23 1.21l1.22.37 2.13.73 1.4.44 2 .62c.48.15.95.29 1.43.42l2.07.58 1.39.37c.79.21 1.58.4 2.37.59l1.1.27c1.13.27 2.27.52 3.41.76l1.14.23 2.39.47 1.44.26 2.12.37 1.52.24 2.09.32 1.5.21 2.24.29 1.35.17c1.12.13 2.25.26 3.37.37l.94.09 2.77.24 1.43.11 2.18.16 1.54.09 2.09.11 1.54.07 2.16.08 1.43.05h14.06l1.51-.05 2.05-.07 1.46-.06 2.23-.11 1.22-.07 3.33-.2 1-.08 2.34-.17 1.39-.12 2-.17 1.43-.13 1.91-.18 1.4-.14 2-.21 1.26-.14 2.51-.3 1.05-.12 2.66-.34 1.2-.16 1.87-.26 1.29-.18 1.74-.26 1.27-.19 1.74-.27 1.17-.18 1.95-.32.88-.15 2.69-.46.93-.17 1.76-.31 1.16-.14 1.55-.29 1.06-.21 1.49-.29 1-.2 1.52-.3.86-.18 2.23-.47.51-.11 1.68-.36.83-.19 1.26-.28.85-.19 1.16-.27.79-.18 1.14-.27.68-.17c.46-.1.9-.21 1.33-.32l.38-.09 1.55-.39.55-.13.94-.24.55-.14.79-.21.54-.14.71-.19.44-.12.72-.19.3-.09.88-.24.2-.05.55-.16.24-.07.36-.1.21-.06.26-.08h.38a111.82 111.82 0 0 1 1.77-17.03c5.76-31.15 24.55-40.24 42-32.06 12.87 6 13.05 31.3 13.06 32.06l85-38.58s-.06-13 5.79-21a27.94 27.94 0 0 1 3.35-3.85c3.49-3.33 7.72-5.6 11.76-5.63a9.82 9.82 0 0 1 6.47 2.3c3.95 3.25 4.4 10.65 4.4 10.65 2.27-.9 5.21-3.15 5.44-5 3.23-24.6 2.27-46.68 1.35-63.34zM13.34 133.17a351.15 351.15 0 0 0-2.35 44.39v3.36l.06 2.51v.57c0 .84.05 1.68.08 2.52v.49q.1 3 .27 6.07v.3c.05.88.1 1.76.16 2.64v.83l.15 2.12c0 .33.05.66.08 1 0 .67.1 1.34.16 2 0 .33 0 .66.08 1 .06.7.13 1.4.19 2.09l.09.88c.08.89.17 1.77.27 2.65v.3q.15 1.47.33 2.94c0 .28.07.56.1.84.09.69.17 1.39.27 2.08 0 .35.09.71.14 1.06.08.62.17 1.24.25 1.86.06.37.11.75.17 1.12.08.6.18 1.21.27 1.82.06.36.11.73.17 1.09.11.65.21 1.3.32 1.95 0 .31.1.61.16.92q.24 1.43.51 2.85c.9.86 1.82 1.7 2.76 2.51.5.44 1 .85 1.53 1.28s.87.74 1.32 1.1c.7.56 1.42 1.1 2.15 1.64l.78.6c.85.62 1.72 1.23 2.6 1.82l.4.28c1 .65 1.94 1.28 2.93 1.9l.15.09a101.72 101.72 0 0 0 9.87 5.26c0-.14-6-35.36-11.09-58-4.16-18.36-9.14-37.33-15.33-52.73z"/></g><g data-name="Van Stripes" fill="#a7a9ac"><path d="M43.76 249.01c0-.56-1-13.77 5.38-31.62 5.85-16.45 19.27-40 50-58.82 56.82-34.79 117.47-47.29 282.19-58.24l.13 1.9c-164.35 10.92-224.82 23.38-281.32 58-57.84 35.41-54.5 88.13-54.46 88.66zM42.86 251.58a1 1 0 0 1-.94-.84c-.16-.96-12.11-94.86-28.8-121.62a1 1 0 0 1 .3-1.31 1 1 0 0 1 1.32.3c7.11 11.4 14.16 35.48 21 71.55 5 26.82 8.07 50.61 8.1 50.85a1 1 0 0 1-.83 1.06z"/></g><path data-name="Top Shadow Line" d="M342.5 57.84c-40.27-3.73-59.56-8.13-164.33-7.41-36.24.26-78.1-.49-125.12 1.94l-1.21 1.6s67.56-.73 112.59-.91 96.7-1.01 178.07 4.78z" fill="#bcbec0"/><circle cx="102.93" cy="207.01" r="17.22" fill="#fffefd"/><path d="M106.34 190.12a17.23 17.23 0 0 0 3 32.87 17.22 17.22 0 0 0-3-32.87z" fill="#a7a9ac"/><path d="M102.93 225.14a18.13 18.13 0 1 1 18.13-18.13 18.15 18.15 0 0 1-18.13 18.13zm0-34.45a16.32 16.32 0 1 0 16.32 16.32 16.34 16.34 0 0 0-16.32-16.32z" fill="#414042"/><path d="M86.61 207.01a16.31 16.31 0 0 1 32.12-4 19.07 19.07 0 0 0 .5-3.87 18.12 18.12 0 1 0-31.1 18.34 25.61 25.61 0 0 0 3.06.87 16.26 16.26 0 0 1-4.58-11.34z" fill="#bcbec0"/><circle cx="99.64" cy="208.26" r="6.23" fill="#fffefd"/><circle cx="110.97" cy="211.19" r="3.29" fill="#fffefd"/><ellipse cx="12.38" cy="187.01" rx="9.02" ry="14.05" fill="#fffefd"/><path d="M14.17 173.23c-3.32 2.08-5.66 7.12-5.66 13 0 6.81 3.11 12.48 7.23 13.77 3.32-2.07 5.67-7.12 5.67-13 0-6.8-3.11-12.48-7.24-13.77z" fill="#a7a9ac"/><path d="M12.38 201.78c-5.23 0-9.49-6.63-9.49-14.79s4.26-14.79 9.49-14.79 9.5 6.64 9.5 14.79-4.26 14.79-9.5 14.79zm0-28.1c-4.71 0-8.54 6-8.54 13.31s3.83 13.31 8.54 13.31 8.55-6 8.55-13.31-3.83-13.3-8.55-13.3z" fill="#414042"/><path d="M3.84 187c0-7.34 3.83-13.31 8.54-13.31 4 0 7.33 4.28 8.28 10a23.22 23.22 0 0 0 .26-3.16c-1.54-4.93-4.78-8.35-8.54-8.35-5.23 0-9.49 6.64-9.49 14.79a20.85 20.85 0 0 0 1.74 8.52 10 10 0 0 0 1.61.71 17.79 17.79 0 0 1-2.4-9.2z" fill="#bcbec0"/><ellipse cx="10.66" cy="188.02" rx="3.26" ry="5.08" fill="#fffefd"/><ellipse cx="16.6" cy="190.41" rx="1.72" ry="2.68" fill="#fffefd"/><circle cx="134.52" cy="167.85" r="11.75" fill="#fffefd"/><path d="M136.85 156.33a11.75 11.75 0 0 0 2 22.42 11.75 11.75 0 0 0-2-22.42z" fill="#a7a9ac"/><path d="M134.52 180.22a12.37 12.37 0 1 1 12.37-12.37 12.39 12.39 0 0 1-12.37 12.37zm0-23.51a11.14 11.14 0 1 0 11.14 11.14 11.16 11.16 0 0 0-11.14-11.14z" fill="#414042"/><path d="M123.38 167.85a11.13 11.13 0 0 1 21.92-2.75 12.16 12.16 0 0 0 .34-2.64 12.36 12.36 0 1 0-21.22 12.51 15.73 15.73 0 0 0 2.09.6 11.11 11.11 0 0 1-3.13-7.72z" fill="#bcbec0"/><circle cx="132.28" cy="168.7" r="4.25" fill="#fffefd"/><circle cx="140.01" cy="170.7" r="2.24" fill="#fffefd"/><ellipse cx="10.97" cy="157.19" rx="4.94" ry="9.09" fill="#fffefd"/><path d="M11.95 148.27c-1.81 1.34-3.1 4.61-3.1 8.43 0 4.41 1.7 8.08 4 8.92 1.81-1.35 3.1-4.61 3.1-8.44-.03-4.4-1.74-8.07-4-8.91z" fill="#a7a9ac"/><path d="M10.98 166.78c-2.87 0-5.21-4.29-5.21-9.57s2.34-9.57 5.21-9.57 5.2 4.3 5.2 9.57-2.34 9.57-5.2 9.57zm0-18.18c-2.59 0-4.69 3.86-4.69 8.61s2.1 8.62 4.69 8.62 4.68-3.87 4.68-8.62-2.1-8.64-4.68-8.64z" fill="#414042"/><path d="M6.29 157.18c0-4.75 2.1-8.61 4.69-8.61 2.18 0 4 2.76 4.53 6.49a17.06 17.06 0 0 0 .14-2.05c-.84-3.19-2.62-5.4-4.67-5.4-2.87 0-5.21 4.3-5.21 9.57a15.53 15.53 0 0 0 1 5.51 4.62 4.62 0 0 0 .88.46 13 13 0 0 1-1.36-5.97z" fill="#bcbec0"/><ellipse cx="10.03" cy="157.84" rx="1.79" ry="3.29" fill="#fffefd"/><ellipse cx="13.28" cy="159.39" rx=".94" ry="1.73" fill="#fffefd"/><g data-name="Window Reflections" opacity=".15"><path d="M181.93 56.42l39.76 53.15 25.67-1.94a7.54 7.54 0 0 0 5.69-3.33l-33.9-47.82zm-91.68.1a7.08 7.08 0 0 0-6.44 4.13l-1.64 3.59 36.93 50.4c7.46-.2 13.86-.5 18-.72a7.09 7.09 0 0 0 6.35-4.89l2.13-6.55-31.89-46zm-40.34 7.11l-11 19.33 18.16 24.82a4.42 4.42 0 0 0 1.38-1.7l8.23-18.3zm280.66-2.22a3.94 3.94 0 0 0-.73 2.92l4.62 30.82a4 4 0 0 0 4.3 3.37l12.83-1.18a4 4 0 0 0 3.58-4.25zm-6.2.69a3.94 3.94 0 0 0-3.68-3.26l-17.31-1a4 4 0 0 0-4.16 4.55l1.05 7 24.74 30.39h.08a4 4 0 0 0 3.59-4.39c-.92-7.97-2.92-25.61-4.31-33.29zm-260 40.85a7.09 7.09 0 0 0 5.34 10c4.56.7 9.82 1.17 15.37 1.47L69.46 91.9z" fill="#fffefd"/></g><g data-name="Rear Bumper"><path d="M376.76 160.78v10a1.64 1.64 0 0 0 2.42 1.45c3.23-1.72 8.75-4.88 10.43-7.18 2.41-3.32 2.64-13.18 0-14.45s-7.57-1.56-7.57-1.56l-.38 5.45s.14 2.92-3.75 4.56a1.91 1.91 0 0 0-1.15 1.73z" fill="#f0f0f0"/><path d="M379.56 171.97c3.27-1.76 8.43-4.76 10-7 1.25-1.71 1.92-5.26 1.92-8.41-1.67 4.22-8.31 7.35-11.57 8.66a3 3 0 0 0-1.83 2.74v3.11a.9.9 0 0 0 1.48.9zM379.85 157.83s5.35-4.21 5.14-5.44-3.1-1.33-3.1-1.33l-.19 2.76a5.77 5.77 0 0 1-1.85 4.01z" fill="#bcbec0"/></g><g data-name="Front Bumper"><path d="M188.69 247.93l-2.49.59-.29.06q-2.7.61-5.77 1.28h-.11l-2.89.6-.61.12c-.9.19-1.82.37-2.76.55l-.51.1-3.45.65h-.1c-1.09.2-2.2.4-3.33.59l-.89.16-2.82.47-.92.15c-2.46.39-5 .78-7.61 1.14l-1 .15-3 .39-1.19.15-3.38.41-.7.08-4.12.44-1.08.1-3.18.3-1.36.11-3.23.25-1.13.09c-1.44.1-2.88.19-4.34.27h-.86l-3.56.17h-1.42c-1.08 0-2.16.07-3.25.09h-1.32c-1.49 0-3 .05-4.5.05h-5.91l-3.31-.1-1.42-.05c-1.34-.06-2.68-.12-4-.2h-.56c-1.53-.1-3.06-.21-4.58-.33l-1.24-.12-3.42-.33-1.42-.15c-1.22-.14-2.43-.29-3.64-.45l-1-.13c-1.52-.21-3-.43-4.56-.68l-.95-.17c-1.2-.2-2.4-.42-3.59-.65l-1.37-.27c-1.14-.23-2.28-.47-3.41-.72l-1.14-.26c-1.49-.34-3-.71-4.46-1.1l-.49-.13c-1.3-.35-2.59-.72-3.88-1.11-.42-.12-.84-.26-1.26-.39-1.08-.33-2.15-.68-3.21-1l-1.21-.41c-1.42-.5-2.83-1-4.22-1.55a96.9 96.9 0 0 1-31.81-19.75c-1.48-7.91-2.53-16.08-3.24-24.28s-26.61 18.84-1.22 45.13c31.69 32.83 116.28 35.81 164.86 26.6 17-3.22 17.9-10.74 17.6-17.23a13.15 13.15 0 0 0-4.77-9.68z" fill="#f0f0f0"/><path d="M.3 221.87c-1.15 7.26.9 16.27 10.68 26.39 31.69 32.83 116.28 35.81 164.86 26.6 17-3.22 17.9-10.74 17.6-17.23 0 0-150.8 40.94-193.14-35.76z" fill="#bcbec0"/><path d="M141.51 259.78l-5.38-.79c.34-2.4.58-9.36-2.39-12.81a6.63 6.63 0 0 0-5.29-2.19c-3.44 0-80.58-.86-112.11-22.39v4.18H10.9v-15.86l4.54 4.08c21 18.89 83.15 24.31 113 24.54a11.88 11.88 0 0 1 9.38 4.09c5.24 6.05 3.76 16.68 3.69 17.15z" fill="#fffefd"/><rect x="70.53" y="231.19" width="13.28" height="52.88" rx="6.64" fill="#f0f0f0"/><path d="M79.92 231.78a6.64 6.64 0 0 1 1.17 3.75v39.6a6.66 6.66 0 0 1-6.64 6.64 6.52 6.52 0 0 1-2.75-.62 6.63 6.63 0 0 0 12.11-3.74v-39.63a6.65 6.65 0 0 0-3.89-6z" fill="#bcbec0"/><rect x="6.45" y="209.67" width="11.87" height="47.27" rx="5.93" fill="#f0f0f0"/><path d="M14.84 210.22a5.89 5.89 0 0 1 1 3.35v35.4a5.9 5.9 0 0 1-8.39 5.39 5.93 5.93 0 0 0 10.82-3.35V215.6a6 6 0 0 0-3.43-5.38z" fill="#bcbec0"/></g><g data-name="Window Trim" fill="#bcbec0"><path d="M157.24 58.88a8 8 0 0 0-6.5-3.32H90.25a8.06 8.06 0 0 0-7.31 4.7l-19.38 42.29a8 8 0 0 0 6 11.3c9.73 1.49 22.5 2 34.66 2 13.26 0 25.79-.55 32.84-.93a8 8 0 0 0 7.21-5.54l14.06-43.24a8 8 0 0 0-1.09-7.26zm-.67 6.62l-14.07 43.28a6.09 6.09 0 0 1-5.49 4.23c-13.46.72-46.95 2.08-67.11-1a6.14 6.14 0 0 1-4.61-8.63l19.39-42.29a6.13 6.13 0 0 1 5.57-3.58h60.51a6.13 6.13 0 0 1 5.83 8zM325.31 61.93a4.92 4.92 0 0 0-4.55-4.05l-17.31-1a4.93 4.93 0 0 0-5.15 5.65l5.3 35.49a4.93 4.93 0 0 0 4.87 4.2 3.39 3.39 0 0 0 .45 0l16.28-1.49a4.89 4.89 0 0 0 3.37-1.79 4.94 4.94 0 0 0 1.08-3.66c-.89-7.44-2.89-25.57-4.34-33.35zm1.76 35.79a2.94 2.94 0 0 1-2.07 1.1l-16.24 1.49a3 3 0 0 1-3.3-2.53l-5.3-35.49a3 3 0 0 1 3-3.47h.17l17.31 1a3 3 0 0 1 2.81 2.47c1.39 7.73 3.46 25.81 4.29 33.22a3 3 0 0 1-.67 2.21zM78.44 57.99a5.29 5.29 0 0 0-4.45-2.43H56.5a5.34 5.34 0 0 0-4.61 2.68L28.42 99.32a5.38 5.38 0 0 0-.45 4.31 5.12 5.12 0 0 0 2.79 3.15c5.33 2.43 12.7 3 18.57 3 2.08 0 4-.07 5.51-.17a5.26 5.26 0 0 0 4.51-3.12l19.51-43.43a5.27 5.27 0 0 0-.42-5.07zm-1.35 4.28L57.58 105.7a3.36 3.36 0 0 1-2.88 2c-4.6.27-16.07.56-23.18-2.68a3.2 3.2 0 0 1-1.73-2 3.43 3.43 0 0 1 .29-2.78l23.47-41.08a3.41 3.41 0 0 1 2.95-1.72h17.49a3.4 3.4 0 0 1 3.1 4.8zM370.63 63.03a4 4 0 0 0-3.67-2.8c-2.46-.1-6.19-.22-9-.31a4 4 0 0 0-3.13 1.35 4 4 0 0 0-1 3.28l4.48 29.32a4 4 0 0 0 4 3.42h.37l9.26-.85a4 4 0 0 0 3.64-4.34c-.44-5.57-1.82-19.5-4.95-29.07zm1.18 31.49l-9.26.85a2.1 2.1 0 0 1-2.29-1.78l-4.5-29.33a2.12 2.12 0 0 1 .51-1.72 2.07 2.07 0 0 1 1.58-.71h.07l8.94.3a2.1 2.1 0 0 1 1.93 1.48c3 9.39 4.44 23.15 4.91 28.63a2.11 2.11 0 0 1-1.89 2.28zM292.18 59.68a4.91 4.91 0 0 0-4.49-3.69l-26.48-1.51a4.93 4.93 0 0 0-5.11 5.91l8.52 41.49a4.91 4.91 0 0 0 4.82 3.93 3.62 3.62 0 0 0 .46 0l24.07-2.21a4.85 4.85 0 0 0 3.4-1.83 4.9 4.9 0 0 0 1-3.72c-1.11-8.68-4.02-29.73-6.19-38.37zm3.7 40.88a3 3 0 0 1-2.09 1.13l-24.03 2.21a3 3 0 0 1-3.24-2.41L258 60.01a3 3 0 0 1 3-3.63h.18l26.48 1.52a3 3 0 0 1 2.75 2.24c2.15 8.54 5 29.52 6.19 38.14a3 3 0 0 1-.72 2.28zM351 63.46a4.89 4.89 0 0 0-4.63-4.07L334 58.78a4.92 4.92 0 0 0-5.1 5.66l4.62 30.82a4.93 4.93 0 0 0 4.87 4.2h.46l12.83-1.17a5 5 0 0 0 4.41-5.76zm2.63 31.75a3 3 0 0 1-2.12 1.18l-12.84 1.18a3 3 0 0 1-3.26-2.57l-4.65-30.82a3 3 0 0 1 .75-2.47 3 3 0 0 1 2.24-1h.14l12.37.57a3 3 0 0 1 2.84 2.5l5.09 29.07a3 3 0 0 1-.56 2.36zM247.45 61.53c-.78-3.72-4.17-6-8.64-6l-61.84-.11a8.59 8.59 0 0 0-7.91 5.78l-14.5 42.42a8.53 8.53 0 0 0 8.07 11.3h.65l84.15-6.35a8.53 8.53 0 0 0 7.72-10.26zm4.64 42.52a6.6 6.6 0 0 1-4.8 2.63l-84.15 6.35a6.64 6.64 0 0 1-6.78-8.77l14.5-42.41a6.66 6.66 0 0 1 6.13-4.49l61.83.11c2.79-.06 6.06 1.08 6.77 4.45l7.69 36.79a6.58 6.58 0 0 1-1.19 5.34z"/></g><g data-name="Side Mirror"><ellipse cx="176.18" cy="98.91" rx="9.67" ry="10.02" fill="#58595b"/><path d="M166.57 97.92a10.11 10.11 0 0 0 8.4 4.56 10.32 10.32 0 0 0 9.91-7.94 9.64 9.64 0 0 0-8.69-5.66 9.81 9.81 0 0 0-9.62 9.04z" fill="#a7a9ac"/><ellipse cx="172.63" cy="99.86" rx="4.89" ry="5.96" fill="#e6e7e8"/><ellipse cx="172.63" cy="99.86" rx="2.51" ry="3.05" fill="#6d6e71"/><path d="M176.19 88.88h-.53a10 10 0 0 1 0 20h.53a10 10 0 0 0 0-20z" fill="#f0f0f0"/><path d="M162.09 129.48a1 1 0 0 1-1-.95v-15.95a8.94 8.94 0 0 1 3.26-6.91l6.61-6.49a1 1 0 1 1 1.33 1.36l-6.67 6.55a7.08 7.08 0 0 0-2.62 5.49v15.95a1 1 0 0 1-.91.95z" fill="#a7a9ac"/><rect x="159.49" y="125.59" width="5.24" height="16.48" rx="2.07" fill="#58595b"/></g><g><g fill="#d3d3d3"><path d="M131.9 32.17v.16h.24zM257.06 25.88a10.54 10.54 0 0 0-7.48-3.85c-14.38-1.18-43.93-2-103.08 1h-.14c-6.83.34-10.44 2.3-12.34 4.34l5.94-.21a23.21 23.21 0 0 1 6.55-1.13h.14c59-2.95 88.4-2.17 102.68-1a7.62 7.62 0 0 1 5.43 2.75c4.53 5.39 3.58 16.48 3.57 16.59l3 .28c.03-.49 1.06-12.43-4.27-18.77z"/><path d="M305.59 26.78a10.54 10.54 0 0 0-7.48-3.85c-14.38-1.18-43.94-2-103.1 1h-.12c-5 .25-8.22 1.35-10.37 2.72l11.73.22c58.26-2.89 87.41-2.11 101.62-1a7.54 7.54 0 0 1 5.42 2.78c4.53 5.38 3.58 16.48 3.57 16.59l3 .27c.03-.48 1.06-12.42-4.27-18.73z"/><path d="M214.53 43.67l-3-.28c0-.11 1-11.21-3.57-16.59a7.61 7.61 0 0 0-5.42-2.78c-14.29-1.17-43.7-1.95-102.68 1h-.1c-6.37.31-9.21 2.13-10.46 3.59a4.31 4.31 0 0 0-1.15 2.57l-3 .14c0-.35-.22-8.57 14.46-9.3h.15c59.14-2.95 88.7-2.17 103.07-1a10.54 10.54 0 0 1 7.48 3.85c5.29 6.35 4.26 18.29 4.22 18.8zM344.35 29.31a10.58 10.58 0 0 0-7.48-3.85c-14.38-1.17-43.95-2-103.1 1h-.12a25.9 25.9 0 0 0-7.7 1.41c4.22.24 11.43.66 18 1.11 52.36-2.38 79.24-1.63 92.7-.53a7.59 7.59 0 0 1 5.43 2.79c4.53 5.38 3.57 16.47 3.56 16.58l3 .28c.01-.51 1.04-12.45-4.29-18.79z"/></g><g data-name="Surf Board"><path d="M291.53 14.12c-2.27 4.59-4.89 5.49-7.19 4.35s-9-.72-6.75-5.31 17-12.54 19.29-11.4-3.12 7.78-5.35 12.36z" fill="#a80018"/><path d="M312.21 13.42c2.42-4.54 7.16-10.58 5-11.66s-15.89 6.21-19 10.85c-7.91-.41-16.48-.78-25.58-1.11 2.89-4.84 6.77-10.29 4.57-11.38s-15.35 5.6-20.5 10.87c-12.25-.36-25.22-.63-38.66-.81-74.47-1-134.89 1.36-134.94 5.22s60.28 7.79 134.76 8.78 134.9-1.4 134.96-5.22c.03-1.96-15.54-3.94-40.61-5.54z" fill="#d81233"/><ellipse cx="272.21" cy="69.4" rx="2.78" ry="134.86" transform="rotate(-89.24 218.65 70.767)" fill="#a80018"/></g></g></svg>
