<svg data-name="Red Van" xmlns="http://www.w3.org/2000/svg" viewBox="0 0 391.52 269.02"><path data-name="Van Shadow" d="M39.25 137.79a27.94 27.94 0 0 1 3.35 3.85c5.85 8 5.79 21 5.79 21l85 38.58s0-26 13.06-32.1c20.3-9.5 42.39 4.27 43.75 48.92 0 0 90.51 27.41 154 2.53a61.61 61.61 0 0 0-1.55-15.6c17 10.22 30.33 20.49 37.31 30.18 8 11.09-81.59 44-143.54 30.69-101.59-21.89-113.47-49-180.24-73.51-73.6-27-55.57-44.09-16.93-54.54z" fill="#020000" opacity=".5"/><g data-name="Side Mirror"><ellipse cx="358.65" cy="63.27" rx="9.67" ry="10.02" fill="#58595b"/><path d="M368.27 62.24a10.11 10.11 0 0 1-8.41 4.56 10.31 10.31 0 0 1-9.9-7.94 9.63 9.63 0 0 1 8.69-5.66 9.81 9.81 0 0 1 9.62 9.04z" fill="#a7a9ac"/><ellipse cx="362.2" cy="64.22" rx="4.89" ry="5.96" fill="#e6e7e8"/><ellipse cx="362.2" cy="64.22" rx="2.51" ry="3.05" fill="#6d6e71"/><path d="M358.65 53.24h.52a10 10 0 0 0 0 20h-.52a10.025 10.025 0 0 1 0-20.05z" fill="#f0f0f0"/><path d="M371.51 94.35a1 1 0 0 0 .95-1v-15.9a9 9 0 0 0-3.26-6.91l-6.61-6.49a1 1 0 0 0-1.34 1.36l6.68 6.55a7.11 7.11 0 0 1 2.62 5.49V93.4a.94.94 0 0 0 .96.95z" fill="#a7a9ac"/></g><path data-name="Back Wheel Well" d="M21.02 134.46a9.82 9.82 0 0 1 6.47-2.3l-3.13 13h-7.74s.45-7.45 4.4-10.7z" fill="#020000"/><path data-name="Front Wheel Well" d="M161.18 169.95c-13.16 0-23.64 13.33-25.85 31.28h-1.91c0-.76.19-26 13.06-32.06 8.43-3.94 17.16-3.86 24.59.78h-9.89z" fill="#231f20"/><g data-name="Back Tire"><path d="M32.13 128.63l15.38-.72c9.79-.46 18.36 14.1 19.14 32.52s-6.51 33.71-16.3 34.17l-15.38.71c-9.79.46-18.36-14.1-19.14-32.51s6.51-33.72 16.3-34.17z" fill="#353132"/><ellipse cx="87.79" cy="240.73" rx="12.51" ry="23.52" transform="rotate(-2.35 -1859.377 1523.672)" fill="#fff"/><path d="M51.41 161.14c-.73-17.2-8.21-31-17.15-32.61l13.25-.62c9.79-.46 18.36 14.1 19.14 32.52s-6.51 33.71-16.3 34.17l-13.25.64c8.78-2.42 15.04-16.91 14.31-34.1z" fill="#020000"/><ellipse cx="87.79" cy="240.73" rx="8.02" ry="15.09" transform="rotate(-2.35 -1859.377 1523.672)"/><path d="M40.61 155.5c-1.41 2.76-3.43 4.52-5.75 4.63-3.23.15-6.18-3-7.8-7.69 1.33-3.29 3.42-5.43 5.85-5.55 3.27-.15 6.23 3.4 7.7 8.61z" fill="#999"/><path d="M26.89 152.87c1.6 7.48 5.58 12.76 10 12.56a6.73 6.73 0 0 0 4.69-2.54c0 7.74-3.2 14-7.39 14.16-4.43.2-8.31-6.38-8.66-14.71a24.58 24.58 0 0 1 1.36-9.47z" fill="#484848"/><path d="M41.05 162.24c-.36-8.39-4.23-15-8.66-14.81a5.27 5.27 0 0 0-3.51 1.81 5.72 5.72 0 0 1 4.18-2.55c4.42-.21 8.3 6.42 8.65 14.8.25 5.95-1.34 11.17-3.87 13.78 2.14-2.8 3.44-7.61 3.21-13.03z" fill="#ccc"/></g><g data-name="Front Tire"><path d="M215.09 210.89c.42 10-.91 18.47-4.56 25 3.3-6.36 4.99-14.75 4.56-25zM135.33 201.24a57.91 57.91 0 0 0-.39 9.66c.94 22.62 14.22 41 29.66 41 15.47-2 27.33-19.83 26.45-41s-12.44-38.51-26.51-40.94h-3.36c-13.16-.01-23.64 13.28-25.85 31.28zm26.36-19.2c10.88 0 20.24 12.92 20.9 28.86s-7.61 28.86-18.49 28.86-20.24-12.92-20.91-28.86 7.62-28.87 18.5-28.87z" fill="#353132"/><path d="M143.19 210.89c.67 15.94 10 28.86 20.91 28.86s19.16-12.92 18.49-28.86-10-28.86-20.9-28.86-19.16 12.92-18.5 28.86zm7-1.76v-.61c0-.37 0-.73.07-1.09s0-.5.08-.74.07-.6.12-.89.08-.55.13-.81.1-.49.16-.73.13-.59.2-.87.1-.36.16-.54a19.83 19.83 0 0 1 1.33-3.47c.09-.17.18-.35.28-.52.13-.25.28-.5.43-.75s.25-.39.38-.59l.36-.51c.17-.23.35-.45.52-.67l.42-.48c.17-.18.34-.36.52-.53l.52-.49.39-.33.07-.05.27-.21c.06 0 .1-.08.16-.11a9.06 9.06 0 0 1 5.48-1.92c7 0 13 8.29 13.42 18.51.28 6.7-1.92 12.54-5.42 15.79l-.09.09-.25.22-.53.46-.52.37a6 6 0 0 1-.52.36c-.19.12-.39.22-.59.32s-.34.19-.52.27-.44.18-.66.26-.33.13-.5.18-.52.12-.79.17l-.42.1a10.19 10.19 0 0 1-1.24.09 9.79 9.79 0 0 1-5.65-1.92c-.33-.23-.65-.48-1-.74a15.9 15.9 0 0 1-1.56-1.52 23.53 23.53 0 0 1-5.24-14.34c.07-.59.07-1.18.08-1.76z" fill="#fff"/><path d="M191.05 210.89c-.88-21.11-12.44-38.51-26.51-40.94h20.89c15.44 0 28.72 18.33 29.66 40.94.43 10.25-1.26 18.64-4.56 25-4 7.71-10.31 12.51-18.13 14.11-5.1 1-27.8 1.81-27.8 1.81 15.47-1.99 27.33-19.8 26.45-40.92z" fill="#020000"/><path d="M157.05 226.75a15.9 15.9 0 0 1-1.56-1.52 15.9 15.9 0 0 0 1.56 1.52zM169.44 227.29l.53-.46zM150.67 204.99c0 .26-.09.53-.13.81.04-.28.08-.56.13-.81zM150.42 206.69c0 .24-.06.49-.08.74.02-.25.05-.5.08-.74zM151.03 203.39zM151.19 202.85a19.83 19.83 0 0 1 1.33-3.47 19.83 19.83 0 0 0-1.33 3.47zM166.13 229.05c.17-.05.33-.12.5-.18-.17.06-.33.13-.5.18zM150.27 208.52v.61c-.03-.21-.01-.4 0-.61zM168.4 228.02a6 6 0 0 0 .52-.36 6 6 0 0 1-.52.36zM164.99 208.71a10.82 10.82 0 0 0 8.38-4.36 26.78 26.78 0 0 1 1.32 7.27v1.51a11.28 11.28 0 0 1-6.59 2.19c-7 0-13.18-6.7-15.58-16 .09-.17.18-.35.28-.52 2.48 5.91 7.08 9.91 12.19 9.91zM163.68 229.41a9.79 9.79 0 0 1-5.65-1.92 9.79 9.79 0 0 0 5.65 1.92zM164.92 229.32l.42-.1zM167.29 228.61c.18-.08.35-.18.52-.27-.17.09-.34.19-.52.27zM154.5 196.32c-.17.22-.35.44-.52.67.17-.23.35-.45.52-.67zM154.92 195.84c.17-.18.34-.36.52-.53-.18.17-.35.35-.52.53zM153.62 197.5c-.13.2-.26.39-.38.59.12-.2.25-.39.38-.59zM156.35 194.49l-.39.33z"/><path d="M156.85 194.12l-.16.11c.07.01.07-.08.16-.11zM155.76 195.06a9.18 9.18 0 0 1 5.55-2c5.22 0 9.89 4.64 12.1 11.25a10.82 10.82 0 0 1-8.38 4.36c-5.11 0-9.71-4-12.18-9.87.13-.25.28-.5.43-.75s.25-.39.38-.59l.36-.51c.17-.23.35-.45.52-.67l.42-.48c.17-.18.34-.36.52-.53l.52-.49.39-.33.07-.05c-.28.24-.51.44-.7.66z" fill="#999"/><path d="M170.24 226.59l.09-.09zM150.27 208.52c0-.37 0-.73.07-1.09s0-.5.08-.74.07-.6.12-.89.08-.55.13-.81.1-.49.16-.73.13-.59.2-.87.1-.36.16-.54a19.83 19.83 0 0 1 1.33-3.47c2.4 9.26 8.6 16 15.58 16a11.28 11.28 0 0 0 6.59-2.19c-.08 6-2.12 11.11-5.27 14.14.19-.15.38-.3.56-.46l-.53.46-.52.37a6 6 0 0 1-.52.36c-.19.12-.39.22-.59.32s-.34.19-.52.27-.44.18-.66.26-.33.13-.5.18-.52.12-.79.17l-.42.1a10.19 10.19 0 0 1-1.24.09 9.79 9.79 0 0 1-5.65-1.92c-.33-.23-.65-.48-1-.74a15.9 15.9 0 0 1-1.56-1.52 23.53 23.53 0 0 1-5.24-14.34v-1.76c0-.24.02-.45.03-.65z" fill="#484848"/><path d="M169.43 227.24c3.15-3 5.19-8.18 5.27-14.14v-1.51a26.78 26.78 0 0 0-1.32-7.27c-2.21-6.61-6.88-11.25-12.1-11.25a9.18 9.18 0 0 0-5.55 2c.23-.22.46-.42.7-.62l.27-.21.16-.11a9.06 9.06 0 0 1 5.48-1.92c7 0 13 8.29 13.42 18.51.28 6.7-1.92 12.54-5.42 15.79l-.09.09-.25.22c-.19.15-.38.3-.57.42z" fill="#ccc"/></g><g data-name="Van Interior" fill="#414042"><path d="M21.76 36.78a3.05 3.05 0 0 1 1.65-1.83c.72-.22 1.15-.31 1.15-.31l-2.8 25.41a4.64 4.64 0 0 0 4.48 5.19l6 .12s.08.32.16.81l-.16 1a3.06 3.06 0 0 1-3.31 2.59l-9.26-.85a3.06 3.06 0 0 1-2.78-3.3c.47-5.95 1.87-19.45 4.87-28.83zM57.43 66.15l-.37 2.46a4 4 0 0 1-4.3 3.37L39.93 70.8a4 4 0 0 1-3.56-4.65zM63.14 66.15h24.62l-.78 5.2a4 4 0 0 1-4.3 3.37l-16.25-1.48a4 4 0 0 1-3.59-4.39c.09-.81.19-1.73.3-2.7zM94.76 66.15h14.55a6.56 6.56 0 0 0 6.31-4.76l9.23-32.15 5.52-.31a4 4 0 0 1 4.12 4.77l-8.52 41.48a4 4 0 0 1-4.26 3.16l-24.07-2.21a4 4 0 0 1-3.58-4.48c.2-1.55.45-3.41.7-5.5zM145.12 36.1a7.67 7.67 0 0 1 7.6-6.12v31a5.51 5.51 0 0 0 5.12 5.49l9.05.62c3.32-4.41 9.28-8 19.94-8h8V29.46l9.87.52 1.57 29c7.87-.16 13.9-.43 17.82-.64l-5.31-27.06a7.55 7.55 0 0 1 2.75 3.7l14.5 42.42a7.59 7.59 0 0 1-7.75 10l-84.15-6.35a7.59 7.59 0 0 1-6.86-9.12zM271.36 29.98h7.4l9.82 28.05h7.18a12.5 12.5 0 0 1 10.57 5.83l5 7.88s11.74.79 14.1.93a19 19 0 0 1 1.72 9.64 7 7 0 0 1-5.34 4.06c-20.44 3.13-54.7 1.69-67.3 1a7.08 7.08 0 0 1-6.35-4.89l-7.6-23.35h40.2zM335.02 29.98a4.35 4.35 0 0 1 3.78 2.19l23.47 41.07a4.32 4.32 0 0 1-1.88 6.08c-7.2 3.29-18.53 3.07-23.62 2.77a4.31 4.31 0 0 1-3.7-2.56l-3.13-7h21.82z"/></g><path data-name="Van Base White" d="M378.18 106.63a351.15 351.15 0 0 1 2.35 44.39c.37-39.49-5.84-73.71-10.35-74.35l-3.17-.46s-22.62-44.09-28.54-50.38l2.7.07s-5.89-17.23-42.61-22.21-209-10.88-279.22 26.29c0 0-7 13.83-9.37 46.81 126.92 12.66 176.46 13.65 253.69 46 58.51 24.45 74.67 61.45 79.1 82.23a61.61 61.61 0 0 1 1.55 15.6q3.83-1.5 7.51-3.26c0-.14 5.95-35.36 11.09-58 4.1-18.36 9.08-37.33 15.27-52.73zM28.89 69.78l-9.26-.85a3.07 3.07 0 0 1-2.78-3.31c.51-6 1.94-19.47 5-28.84a3.08 3.08 0 0 1 2.8-2.14l9-.31a3.07 3.07 0 0 1 3.13 3.54L32.2 67.24a3.06 3.06 0 0 1-3.31 2.54zm32.79-32L57.06 68.6a4 4 0 0 1-4.3 3.37l-12.83-1.18a4 4 0 0 1-3.56-4.65l5.09-29.06a4 4 0 0 1 3.73-3.29l12.37-.55a4 4 0 0 1 4.12 4.55zm30.62-1.93L87 71.34a4 4 0 0 1-4.3 3.37l-16.27-1.47a4 4 0 0 1-3.59-4.39c.89-8 2.92-25.59 4.31-33.28a3.94 3.94 0 0 1 3.68-3.26l17.31-1a4 4 0 0 1 4.16 4.55zm42.19-2.2l-8.52 41.48a4 4 0 0 1-4.26 3.16l-24.07-2.21a4 4 0 0 1-3.58-4.48c1.18-8.86 4-29.68 6.21-38.24a4 4 0 0 1 3.62-3l26.48-1.51a4 4 0 0 1 4.12 4.81zm93.82 53.78l-84.15-6.35a7.59 7.59 0 0 1-6.86-9.12l7.7-36.78c.75-3.58 4.07-5.29 7.72-5.21l61.81-.11a7.58 7.58 0 0 1 7 5.13l14.5 42.42a7.59 7.59 0 0 1-7.72 10.03zm93.45-1.06c-20.43 3.12-54.68 1.69-67.3 1a7.09 7.09 0 0 1-6.35-4.89l-14.07-43.24a7.09 7.09 0 0 1 6.74-9.28h60.49a7.08 7.08 0 0 1 6.44 4.13l19.39 42.3a7.09 7.09 0 0 1-5.34 9.98zm38.63-7c-7.2 3.29-18.53 3.07-23.62 2.77a4.31 4.31 0 0 1-3.7-2.56l-19.51-43.46a4.35 4.35 0 0 1 4-6.14h17.49a4.35 4.35 0 0 1 3.78 2.19l23.44 41.07a4.32 4.32 0 0 1-1.88 6.1z" fill="#f0f0f0"/><g data-name="Van Base Red" fill="#d81233"><path d="M263.66 122.75c-77.23-32.31-126.77-33.3-253.69-46h-.09c-.92 16.66-1.88 38.74 1.3 63.33.23 1.83 3.17 4.08 5.44 5 0 0 .45-7.4 4.4-10.65a9.82 9.82 0 0 1 6.47-2.3c4 0 8.27 2.3 11.76 5.63a27.94 27.94 0 0 1 3.35 3.85c5.85 8 5.79 21 5.79 21l85 38.58c0-.76.19-26 13.06-32.06 17.47-8.18 36.26.91 42 32.06a111.82 111.82 0 0 1 1.73 16.86h.38l.26.08.21.06.36.1.24.07.55.16.2.05.88.24.3.09.72.19.44.12.71.19.54.14.79.21.55.14.94.24.55.13 1.55.39.38.09c.43.11.87.22 1.33.32l.68.17 1.14.27.79.18 1.16.27.85.19 1.26.28.83.19 1.68.36.51.11 2.23.47.86.18 1.52.3 1 .2 1.49.29 1.06.21 1.64.51 1.07.2 1.76.31.93.17 2.69.46.88.15 1.95.32 1.17.18 1.74.27 1.27.19 1.74.26 1.29.18 1.87.26 1.2.16 2.66.34 1.05.12 2.51.3 1.26.14 2 .21 1.4.14 1.91.18 1.43.13 2 .17 1.39.12 2.34.17 1.05.08 3.33.2 1.22.07 2.23.11 1.46.06 2.05.07 1.51.05h14.11l1.43-.05 2.16-.08 1.54-.07 2.09-.11 1.54-.09 2.18-.16 1.43-.11 2.77-.24.94-.09c1.12-.11 2.25-.24 3.37-.37l1.35-.17 2.24-.29 1.5-.21 2.09-.32 1.52-.24 2.12-.37 1.44-.26 2.39-.47 1.14-.23c1.14-.24 2.28-.49 3.41-.76l1.1-.27c.79-.19 1.58-.38 2.37-.59l1.39-.37 2.07-.58c.48-.13.95-.27 1.43-.42l2-.62 1.4-.44 2.12-.79 1.22-.42c1.08-.39 2.16-.79 3.23-1.21a61.61 61.61 0 0 0-1.55-15.6c-4.33-20.77-20.49-57.77-79-82.26zM378.18 106.63c-6.19 15.4-11.17 34.37-15.33 52.69-5.09 22.69-11.09 57.92-11.09 58.05a101.72 101.72 0 0 0 9.69-5.27l.15-.09c1-.62 2-1.25 2.93-1.9l.4-.28c.88-.59 1.75-1.2 2.6-1.82l.78-.6c.73-.54 1.45-1.08 2.15-1.64.45-.36.88-.74 1.32-1.1s1-.84 1.53-1.28c.94-.81 1.86-1.65 2.76-2.51q.27-1.42.51-2.85c.06-.31.11-.61.16-.92.11-.65.21-1.3.32-1.95.06-.36.11-.73.17-1.09.09-.61.19-1.22.27-1.82.06-.37.11-.75.17-1.12.08-.62.17-1.24.25-1.86 0-.35.1-.71.14-1.06.1-.69.18-1.39.27-2.08 0-.28.07-.56.1-.84q.18-1.47.33-2.94v-.3c.1-.88.19-1.76.27-2.65l.09-.88c.06-.69.13-1.39.19-2.09 0-.33.05-.66.08-1 .06-.67.11-1.34.16-2 0-.33.05-.66.08-1l.15-2.12c0-.28 0-.55.05-.83.06-.88.11-1.76.16-2.64v-.3q.17-3 .27-6.07v-.49c0-.84.05-1.68.08-2.52v-.57l.06-2.51v-.46-2.9a351.15 351.15 0 0 0-2.22-44.39z"/></g><g data-name="Van Stripes" fill="#a7a9ac"><path d="M347.76 222.47c0-.56 1-13.77-5.38-31.62-5.85-16.45-19.27-40-50-58.82-56.82-34.79-117.47-47.29-282.19-58.24l-.13 1.9c164.35 10.92 224.82 23.38 281.32 58 57.84 35.41 54.5 88.13 54.46 88.66zM348.66 225.04a1 1 0 0 0 .94-.84c.16-.96 12.16-94.86 28.8-121.62a1 1 0 0 0-.3-1.31 1 1 0 0 0-1.32.3c-7.11 11.4-14.16 35.48-21 71.55-5.02 26.82-8.02 50.61-8.02 50.85a1 1 0 0 0 .83 1.06z"/></g><path data-name="Top Shadow Line" d="M49.02 31.3c40.27-3.73 59.56-8.13 164.33-7.41 36.24.26 78.1-.49 125.12 1.94l1.21 1.6s-67.56-.73-112.59-.91-96.7-1.01-178.07 4.78z" fill="#bcbec0"/><circle cx="288.59" cy="180.47" r="17.22" fill="#fffefd"/><path d="M285.18 163.58a17.23 17.23 0 0 1-3 32.87 17.22 17.22 0 0 1 3-32.87z" fill="#a7a9ac"/><path d="M270.46 180.47a18.13 18.13 0 1 1 18.13 18.13 18.15 18.15 0 0 1-18.13-18.13zm1.81 0a16.32 16.32 0 1 0 16.32-16.32 16.34 16.34 0 0 0-16.32 16.32z" fill="#414042"/><path d="M304.91 180.47a16.31 16.31 0 0 0-32.12-4 19.07 19.07 0 0 1-.5-3.87 18.12 18.12 0 1 1 31.1 18.34 25.61 25.61 0 0 1-3.06.87 16.26 16.26 0 0 0 4.58-11.34z" fill="#bcbec0"/><circle cx="291.87" cy="181.72" r="6.23" fill="#fffefd"/><circle cx="280.54" cy="184.64" r="3.29" fill="#fffefd"/><ellipse cx="379.13" cy="160.46" rx="9.02" ry="14.05" fill="#fffefd"/><path d="M377.35 146.69c3.32 2.08 5.66 7.12 5.66 13 0 6.81-3.11 12.48-7.23 13.77-3.32-2.07-5.67-7.12-5.67-13 0-6.8 3.11-12.48 7.24-13.77z" fill="#a7a9ac"/><path d="M369.64 160.46c0-8.15 4.26-14.79 9.5-14.79s9.49 6.64 9.49 14.79-4.26 14.78-9.49 14.78-9.5-6.62-9.5-14.78zm.95 0c0 7.34 3.83 13.31 8.55 13.31s8.54-6 8.54-13.31-3.83-13.31-8.54-13.31-8.55 5.97-8.55 13.31z" fill="#414042"/><path d="M387.68 160.46c0-7.34-3.83-13.31-8.54-13.31-4 0-7.33 4.28-8.28 10a23.22 23.22 0 0 1-.26-3.16c1.54-4.93 4.78-8.35 8.54-8.35 5.23 0 9.49 6.64 9.49 14.79a20.85 20.85 0 0 1-1.74 8.52 10 10 0 0 1-1.61.71 17.79 17.79 0 0 0 2.4-9.2z" fill="#bcbec0"/><ellipse cx="380.85" cy="161.48" rx="3.26" ry="5.08" fill="#fffefd"/><ellipse cx="374.92" cy="163.87" rx="1.72" ry="2.68" fill="#fffefd"/><circle cx="257" cy="141.31" r="11.75" fill="#fffefd"/><path d="M254.67 129.79a11.75 11.75 0 0 1-2.05 22.45 11.75 11.75 0 0 1 2.05-22.42z" fill="#a7a9ac"/><path d="M244.63 141.31A12.37 12.37 0 1 1 257 153.68a12.39 12.39 0 0 1-12.37-12.37zm1.23 0A11.14 11.14 0 1 0 257 130.17a11.16 11.16 0 0 0-11.14 11.14z" fill="#414042"/><path d="M268.14 141.31a11.13 11.13 0 0 0-21.92-2.75 12.16 12.16 0 0 1-.34-2.64 12.36 12.36 0 1 1 21.22 12.51 15.73 15.73 0 0 1-2.09.6 11.11 11.11 0 0 0 3.13-7.72z" fill="#bcbec0"/><circle cx="259.24" cy="142.16" r="4.25" fill="#fffefd"/><circle cx="251.51" cy="144.16" r="2.24" fill="#fffefd"/><ellipse cx="380.54" cy="130.64" rx="4.94" ry="9.09" fill="#fffefd"/><path d="M379.57 121.73c1.81 1.34 3.1 4.61 3.1 8.43 0 4.41-1.7 8.08-4 8.92-1.81-1.35-3.1-4.61-3.1-8.44.03-4.4 1.74-8.07 4-8.91z" fill="#a7a9ac"/><path d="M375.34 130.64c0-5.27 2.34-9.57 5.2-9.57s5.21 4.3 5.21 9.57-2.34 9.57-5.21 9.57-5.2-4.29-5.2-9.57zm.52 0c0 4.75 2.1 8.62 4.68 8.62s4.69-3.87 4.69-8.62-2.1-8.61-4.69-8.61-4.68 3.86-4.68 8.61z" fill="#414042"/><path d="M385.23 130.64c0-4.75-2.1-8.61-4.69-8.61-2.18 0-4 2.76-4.53 6.49a17.06 17.06 0 0 1-.14-2.05c.84-3.19 2.62-5.4 4.67-5.4 2.87 0 5.21 4.3 5.21 9.57a15.53 15.53 0 0 1-1 5.51 4.62 4.62 0 0 1-.88.46 13 13 0 0 0 1.36-5.97z" fill="#bcbec0"/><ellipse cx="381.49" cy="131.3" rx="1.79" ry="3.29" fill="#fffefd"/><ellipse cx="378.23" cy="132.85" rx=".94" ry="1.73" fill="#fffefd"/><g data-name="Window Reflections" opacity=".15"><path d="M172.37 29.94l-33.9 47.82a7.54 7.54 0 0 0 5.69 3.33l25.67 1.94 39.76-53.15zm105.5 0l-31.89 46 2.13 6.55a7.09 7.09 0 0 0 6.35 4.89c4.1.22 10.5.52 18 .72l36.93-50.4-1.63-3.59a7.08 7.08 0 0 0-6.44-4.13zm47 31.26l8.23 18.31a4.42 4.42 0 0 0 1.38 1.7l18.2-24.83-11-19.33zM36.35 66.55a4 4 0 0 0 3.58 4.25l12.83 1.18a4 4 0 0 0 4.3-3.37l4.62-30.82a3.94 3.94 0 0 0-.73-2.92zm26.49 2.29a4 4 0 0 0 3.59 4.39h.08L91.25 42.9l1-7a4 4 0 0 0-4.16-4.55l-17.31 1a3.94 3.94 0 0 0-3.68 3.26c-1.34 7.63-3.34 25.27-4.26 33.23zm259.17-3.52l-15.62 22.52c5.55-.3 10.81-.77 15.37-1.47a7.09 7.09 0 0 0 5.34-10z" fill="#fffefd"/></g><g data-name="Rear Bumper"><path d="M14.76 134.24v10a1.64 1.64 0 0 1-2.42 1.45c-3.23-1.72-8.75-4.88-10.43-7.18-2.41-3.32-2.64-13.18 0-14.45s7.57-1.56 7.57-1.56l.38 5.45s-.14 2.92 3.75 4.56a1.91 1.91 0 0 1 1.15 1.73z" fill="#f0f0f0"/><path d="M11.96 145.43c-3.27-1.76-8.43-4.76-10-7-1.25-1.71-1.92-5.26-1.92-8.41 1.67 4.22 8.31 7.35 11.57 8.66a3 3 0 0 1 1.83 2.74v3.11a.9.9 0 0 1-1.48.9zM11.67 131.29s-5.35-4.21-5.14-5.44 3.1-1.33 3.1-1.33l.19 2.76a5.77 5.77 0 0 0 1.85 4.01z" fill="#bcbec0"/></g><g data-name="Front Bumper"><path d="M202.83 221.39l2.49.59.29.06q2.7.61 5.77 1.28h.11l2.89.6.61.12c.9.19 1.82.37 2.76.55l.51.1 3.45.65h.1c1.09.2 2.2.4 3.33.59l.89.16 2.82.47.92.15c2.46.39 5 .78 7.61 1.14l1 .15 3 .39 1.19.15 3.38.41.7.08 4.12.44 1.08.1 3.18.3 1.36.11 3.23.25 1.13.09c1.44.1 2.88.19 4.34.27h.86l3.56.17h1.42c1.08 0 2.16.07 3.25.09h1.32c1.49 0 3 .05 4.5.05h5.91l3.31-.1 1.42-.05c1.34-.06 2.68-.12 4-.2h.56c1.53-.1 3.06-.21 4.58-.33l1.24-.12 3.42-.33 1.42-.15c1.22-.14 2.43-.29 3.64-.45l1-.13c1.52-.21 3-.43 4.56-.68l.95-.17c1.2-.2 2.4-.42 3.59-.65l1.37-.27c1.14-.23 2.28-.47 3.41-.72l1.14-.26c1.49-.34 3-.71 4.46-1.1l.49-.13c1.3-.35 2.59-.72 3.88-1.11.42-.12.84-.26 1.26-.39 1.08-.33 2.15-.68 3.21-1l1.21-.41c1.42-.5 2.83-1 4.22-1.55a96.9 96.9 0 0 0 31.81-19.75c1.48-7.91 2.53-16.08 3.24-24.28s26.61 18.84 1.22 45.13c-31.69 32.83-116.28 35.81-164.86 26.6-17-3.22-17.9-10.74-17.6-17.23a13.15 13.15 0 0 1 4.77-9.68z" fill="#f0f0f0"/><path d="M391.22 195.33c1.15 7.26-.9 16.27-10.68 26.39-31.69 32.83-116.28 35.81-164.86 26.6-17-3.22-17.9-10.74-17.6-17.23 0 0 150.8 40.94 193.14-35.76z" fill="#bcbec0"/><path d="M250.01 233.24l5.38-.79c-.34-2.4-.58-9.36 2.39-12.81a6.63 6.63 0 0 1 5.29-2.19c3.44 0 80.58-.86 112.11-22.39v4.18h5.44v-15.86l-4.54 4.08c-21.05 18.89-83.15 24.31-113 24.54a11.88 11.88 0 0 0-9.38 4.09c-5.24 6.05-3.76 16.68-3.69 17.15z" fill="#fffefd"/><rect x="361.95" y="283.4" width="13.28" height="52.88" rx="6.64" transform="rotate(-180 341.47 270.465)" fill="#f0f0f0"/><path d="M311.6 205.24a6.64 6.64 0 0 0-1.17 3.75v39.6a6.66 6.66 0 0 0 6.64 6.64 6.52 6.52 0 0 0 2.75-.62 6.63 6.63 0 0 1-12.06-3.72v-39.65a6.65 6.65 0 0 1 3.84-6z" fill="#bcbec0"/><rect x="427.44" y="261.89" width="11.87" height="47.27" rx="5.93" transform="rotate(180 406.255 246.145)" fill="#f0f0f0"/><path d="M376.68 183.68a5.89 5.89 0 0 0-1.05 3.35v35.4a5.9 5.9 0 0 0 8.39 5.39 5.93 5.93 0 0 1-10.82-3.35v-35.41a6 6 0 0 1 3.48-5.38z" fill="#bcbec0"/></g><g data-name="Window Trim" fill="#bcbec0"><path d="M233.14 39.55l14.06 43.24a8 8 0 0 0 7.21 5.54c7.05.38 19.58.93 32.84.93 12.16 0 24.93-.46 34.66-2a8 8 0 0 0 6.05-11.3l-19.38-42.29a8.06 8.06 0 0 0-7.31-4.7h-60.51a8 8 0 0 0-7.64 10.53zm2.68-6.09a6.07 6.07 0 0 1 5-2.53h60.49a6.13 6.13 0 0 1 5.57 3.58l19.39 42.29a6.14 6.14 0 0 1-4.61 8.63c-20.16 3.08-53.65 1.72-67.11 1a6.09 6.09 0 0 1-5.49-4.23l-14.07-43.24a6 6 0 0 1 .83-5.5zM61.89 68.73a4.94 4.94 0 0 0 1.08 3.66 4.89 4.89 0 0 0 3.37 1.79l16.28 1.49a3.39 3.39 0 0 0 .45 0 4.93 4.93 0 0 0 4.87-4.2l5.3-35.49a4.93 4.93 0 0 0-5.15-5.65l-17.31 1a4.92 4.92 0 0 0-4.57 4.05c-1.4 7.79-3.45 25.92-4.32 33.35zm1.9.21c.83-7.41 2.9-25.49 4.29-33.22a3 3 0 0 1 2.81-2.47l17.31-1h.17a3 3 0 0 1 3 3.47l-5.31 35.52a3 3 0 0 1-3.27 2.56l-16.27-1.56a2.94 2.94 0 0 1-2.07-1.1 3 3 0 0 1-.69-2.2zM312.69 36.51l19.51 43.43a5.26 5.26 0 0 0 4.51 3.12c1.54.1 3.43.17 5.51.17 5.87 0 13.24-.59 18.57-3a5.12 5.12 0 0 0 2.76-3.12 5.38 5.38 0 0 0-.45-4.31l-23.47-41.08a5.34 5.34 0 0 0-4.61-2.68h-17.49a5.32 5.32 0 0 0-4.84 7.49zm2-4a3.38 3.38 0 0 1 2.85-1.55h17.49a3.41 3.41 0 0 1 2.95 1.72l23.47 41.08a3.43 3.43 0 0 1 .29 2.78 3.2 3.2 0 0 1-1.73 2c-7.11 3.24-18.58 2.95-23.18 2.68a3.36 3.36 0 0 1-2.88-2l-19.51-43.43a3.39 3.39 0 0 1 .24-3.31zM15.9 65.54a4 4 0 0 0 3.64 4.34l9.26.85h.37a4 4 0 0 0 4-3.42l4.48-29.32a4 4 0 0 0-1-3.28 4 4 0 0 0-3.13-1.35c-2.77.09-6.5.21-9 .31a4 4 0 0 0-3.67 2.8c-3.04 9.59-4.47 23.52-4.95 29.07zm1.9.16c.47-5.48 1.89-19.24 4.91-28.63a2.1 2.1 0 0 1 1.93-1.48l8.94-.3h.07a2.07 2.07 0 0 1 1.58.71 2.12 2.12 0 0 1 .51 1.72l-4.48 29.33a2.1 2.1 0 0 1-2.29 1.78l-9.21-.85a2.11 2.11 0 0 1-2-2.28zM93.11 71.49a4.9 4.9 0 0 0 1 3.72 4.85 4.85 0 0 0 3.4 1.83l24.11 2.2a3.62 3.62 0 0 0 .46 0 4.91 4.91 0 0 0 4.82-3.93l8.52-41.49a4.93 4.93 0 0 0-5.11-5.91l-26.48 1.51a4.91 4.91 0 0 0-4.49 3.69c-2.17 8.67-5.08 29.72-6.23 38.38zm1.89.25c1.15-8.62 4-29.6 6.19-38.14a3 3 0 0 1 2.75-2.24l26.48-1.52h.18a3 3 0 0 1 3 3.63l-8.52 41.48a3 3 0 0 1-3.24 2.41l-24.08-2.21a3 3 0 0 1-2.73-3.41zM35.43 65.99a5 5 0 0 0 4.41 5.76l12.83 1.17h.46a4.93 4.93 0 0 0 4.87-4.2l4.62-30.82a4.92 4.92 0 0 0-5.1-5.66l-12.37.58a4.89 4.89 0 0 0-4.63 4.07zm1.88.33l5.09-29.08a3 3 0 0 1 2.84-2.5l12.37-.57h.15a3 3 0 0 1 2.24 1 3 3 0 0 1 .75 2.47l-4.63 30.82a3 3 0 0 1-3.26 2.57l-12.84-1.18a3 3 0 0 1-2.12-1.18 3 3 0 0 1-.59-2.35zM136.37 71.78a8.53 8.53 0 0 0 7.72 10.26l84.15 6.35h.65a8.53 8.53 0 0 0 8.07-11.3l-14.5-42.42a8.59 8.59 0 0 0-7.91-5.78l-61.84.11c-4.47-.06-7.86 2.25-8.64 6zm1.87.39l7.69-36.79c.71-3.37 4-4.51 6.77-4.45l61.83-.11a6.66 6.66 0 0 1 6.13 4.49l14.5 42.41a6.64 6.64 0 0 1-6.78 8.77l-84.15-6.35a6.63 6.63 0 0 1-6-8z"/></g><g data-name="Side Mirror"><ellipse cx="215.33" cy="72.36" rx="9.67" ry="10.02" fill="#58595b"/><path d="M224.95 71.38a10.11 10.11 0 0 1-8.4 4.56 10.32 10.32 0 0 1-9.91-7.94 9.64 9.64 0 0 1 8.69-5.66 9.81 9.81 0 0 1 9.62 9.04z" fill="#a7a9ac"/><ellipse cx="218.89" cy="73.32" rx="4.89" ry="5.96" fill="#e6e7e8"/><ellipse cx="218.89" cy="73.32" rx="2.51" ry="3.05" fill="#6d6e71"/><path d="M215.33 62.34h.53a10 10 0 0 0 0 20h-.53a10 10 0 0 1 0-20z" fill="#f0f0f0"/><path d="M229.43 102.94a1 1 0 0 0 1-.95V86.04a8.94 8.94 0 0 0-3.26-6.91l-6.61-6.49a1 1 0 1 0-1.33 1.36l6.67 6.55a7.08 7.08 0 0 1 2.62 5.49v15.95a1 1 0 0 0 .91.95z" fill="#a7a9ac"/><rect x="281.03" y="177.81" width="5.24" height="16.48" rx="2.07" transform="rotate(180 256.53 146.67)" fill="#58595b"/></g></svg>
